<svg id="Calque_1" data-name="Calque 1" xmlns="http://www.w3.org/2000/svg" viewBox="0 0 1920 1080"><defs><style>.cls-1{fill:#8ecae6;}.cls-2{fill:#219ebc;}</style></defs><path class="cls-1" d="M678.18,808.75a58.11,58.11,0,0,1-96.87,44.64,31.84,31.84,0,0,0-21.25-8.25h-2.38a31.52,31.52,0,0,0-31.52,31.51v173.78a20,20,0,0,1-20,20H332.41a31.51,31.51,0,0,1-31.51-31.51v-2.38a31.84,31.84,0,0,1,8.25-21.25,58.1,58.1,0,1,0-86.61-.07,32,32,0,0,1,8.31,21.32v2.38a31.51,31.51,0,0,1-31.51,31.51H24.77a20,20,0,0,1-20-20V569a20,20,0,0,1,20-20H199.34a31.51,31.51,0,0,0,31.51-31.51v-2.38a32,32,0,0,0-8.31-21.32,58.1,58.1,0,1,1,86.61.07,31.84,31.84,0,0,0-8.25,21.25v2.38A31.51,31.51,0,0,0,332.41,549H506.19a20,20,0,0,1,20,20V743.58a31.52,31.52,0,0,0,31.52,31.51h2.38a32.07,32.07,0,0,0,21.32-8.31,58.11,58.11,0,0,1,96.8,42Z"/><path class="cls-2" d="M665.67,829a58.1,58.1,0,0,1-96.87,44.64,31.88,31.88,0,0,0-21.25-8.25h-2.38a31.52,31.52,0,0,0-31.51,31.52v173.78a20,20,0,0,1-20,20H319.91a31.52,31.52,0,0,1-31.52-31.52v-2.38a31.88,31.88,0,0,1,8.25-21.25,58.11,58.11,0,1,0-86.6-.07,32.07,32.07,0,0,1,8.31,21.32v2.38a31.52,31.52,0,0,1-31.52,31.52H12.26a20,20,0,0,1-20-20V589.29a20,20,0,0,1,20-20H186.83a31.52,31.52,0,0,0,31.52-31.52v-2.38A32.07,32.07,0,0,0,210,514.1a58.11,58.11,0,1,1,86.6.07,31.88,31.88,0,0,0-8.25,21.25v2.38a31.52,31.52,0,0,0,31.52,31.52H493.68a20,20,0,0,1,20,20V763.86a31.52,31.52,0,0,0,31.51,31.52h2.38a32.05,32.05,0,0,0,21.32-8.31,58.1,58.1,0,0,1,96.8,42Z"/></svg>