<svg id="Calque_1" data-name="Calque 1" xmlns="http://www.w3.org/2000/svg" viewBox="0 0 1920 1080"><defs><style>.cls-1{fill:#8ecae6;}.cls-2{fill:#219ebc;}</style></defs><path class="cls-1" d="M1569.54,554A87.33,87.33,0,0,1,1424,621.13,47.89,47.89,0,0,0,1392,608.74h-3.58a47.37,47.37,0,0,0-47.36,47.36V947.29H1049.88a47.37,47.37,0,0,1-47.36-47.36v-3.58a47.91,47.91,0,0,1,12.39-31.94,87.33,87.33,0,0,0-67.09-145.59c-46.7,1.08-84.65,39.43-85.26,86.14a87,87,0,0,0,22.19,59.34,48.21,48.21,0,0,1,12.49,32.05v3.58a47.37,47.37,0,0,1-47.36,47.36H557.49V656.1a47.37,47.37,0,0,0-47.36-47.36h-3.57a48.17,48.17,0,0,0-32.05,12.49,87,87,0,0,1-59.35,22.19c-46.71-.61-85.06-38.56-86.14-85.26a87.33,87.33,0,0,1,145.59-67.09,47.89,47.89,0,0,0,31.95,12.39h3.57a47.37,47.37,0,0,0,47.36-47.36V164.31l.6-.6H849.88a47.36,47.36,0,0,1,47.36,47.37v3.57a47.84,47.84,0,0,1-12.39,31.94,87.33,87.33,0,0,0,67.09,145.59c46.7-1.07,84.65-39.43,85.26-86.13A87,87,0,0,0,1015,246.7a48.17,48.17,0,0,1-12.49-32v-3.57a47.36,47.36,0,0,1,47.36-47.37h291.19V456.1a47.37,47.37,0,0,0,47.36,47.36H1392a48.17,48.17,0,0,0,32-12.49,87,87,0,0,1,59.35-22.19C1530.11,469.39,1568.46,507.34,1569.54,554Z"/><path class="cls-2" d="M1590.48,523.54a87.33,87.33,0,0,1-145.59,67.09,47.89,47.89,0,0,0-31.94-12.4h-3.58A47.37,47.37,0,0,0,1362,625.59v291.2h-291.2a47.37,47.37,0,0,1-47.36-47.37v-3.57a47.85,47.85,0,0,1,12.4-31.94,87.33,87.33,0,0,0-67.09-145.59c-46.71,1.07-84.65,39.43-85.26,86.13a87,87,0,0,0,22.19,59.35,48.17,48.17,0,0,1,12.49,32.05v3.57a47.37,47.37,0,0,1-47.36,47.37H578.43V625.59a47.37,47.37,0,0,0-47.36-47.36h-3.58a48.17,48.17,0,0,0-32.05,12.49,87,87,0,0,1-59.35,22.19c-46.7-.61-85-38.55-86.13-85.26a87.33,87.33,0,0,1,145.59-67.09A47.85,47.85,0,0,0,527.49,473h3.58a47.37,47.37,0,0,0,47.36-47.36V133.81l.6-.6H870.82a47.36,47.36,0,0,1,47.36,47.36v3.58a47.87,47.87,0,0,1-12.4,31.94,87.33,87.33,0,0,0,67.09,145.59c46.71-1.08,84.65-39.43,85.26-86.14a86.91,86.91,0,0,0-22.19-59.34,48.21,48.21,0,0,1-12.49-32v-3.58a47.36,47.36,0,0,1,47.36-47.36H1362V425.6A47.37,47.37,0,0,0,1409.37,473H1413a48.16,48.16,0,0,0,32-12.49,87,87,0,0,1,59.35-22.19C1551.05,438.89,1589.4,476.83,1590.48,523.54Z"/></svg>