<svg id="Calque_1" data-name="Calque 1" xmlns="http://www.w3.org/2000/svg" viewBox="0 0 1920 1080"><defs><style>.cls-1{fill:#8ecae6;stroke:#8ecae6;stroke-width:1.93px;}.cls-1,.cls-2{stroke-miterlimit:10;}.cls-2{fill:#fff;stroke:#219ebc;stroke-width:5px;}</style></defs><path class="cls-1" d="M847.55,1029.75a60.82,60.82,0,0,1-48.11,23.54H423.17V678.56a61,61,0,0,0-60.95-60.95h-4.6a61.1,61.1,0,0,0-32.15,9.27,64.9,64.9,0,0,0-9.1,6.8A111.82,111.82,0,0,1,240,662.24c-60.1-.78-109.45-49.61-110.84-109.72a112.29,112.29,0,0,1,58.52-101.31,112,112,0,0,0-32.78,82c1.39,60.11,50.74,108.93,110.83,109.72a112.18,112.18,0,0,0,76.38-28.56,62,62,0,0,1,41.24-16.07H388a61,61,0,0,1,61,60.94V1034H825.17A60.73,60.73,0,0,0,847.55,1029.75Z"/><path class="cls-1" d="M448.91,45.3V401.89a61,61,0,0,1-38.56,56.7,60.63,60.63,0,0,0,12.82-37.39V45.7l.4-.4Z"/><path class="cls-1" d="M1431.53,1034v19.3H1056.8a61,61,0,0,1-60.95-61v-4.59a61.55,61.55,0,0,1,16-41.1A112.3,112.3,0,0,0,874.52,773a112.3,112.3,0,0,1,163,154.37,61.6,61.6,0,0,0-16,41.11V973a61,61,0,0,0,60.94,61Z"/><path class="cls-1" d="M1692.77,629.25a112.38,112.38,0,0,1-154.58,4.32,61.63,61.63,0,0,0-41.1-16h-4.61a60.79,60.79,0,0,0-22.39,4.25,60.85,60.85,0,0,1,48.13-23.55h4.6a61.63,61.63,0,0,1,41.11,16,112.45,112.45,0,0,0,128.84,15Z"/><path class="cls-2" d="M1692.77,629.25a112.45,112.45,0,0,1-128.84-15,61.63,61.63,0,0,0-41.11-16h-4.6a60.94,60.94,0,0,0-61,60.94V1034H1082.53a61,61,0,0,1-60.94-61v-4.59a61.6,61.6,0,0,1,16-41.11,112.38,112.38,0,1,0-167.5-.14,62,62,0,0,1,16.07,41.25V973a60.9,60.9,0,0,1-61,61H448.91V659.25a61,61,0,0,0-61-60.94h-4.61a62,62,0,0,0-41.24,16.07,112.18,112.18,0,0,1-76.38,28.56c-60.09-.79-109.44-49.61-110.83-109.72a112.39,112.39,0,0,1,187.35-86.34,61.57,61.57,0,0,0,41.1,16H388a60.91,60.91,0,0,0,61-60.95V26.4l.4-.4h1008V401.89a61,61,0,0,0,61,60.95h4.6a60.94,60.94,0,0,0,31.47-8.86,64.86,64.86,0,0,0,9.76-7.21,111.91,111.91,0,0,1,76.38-28.56c60.11.79,109.46,49.61,110.85,109.72A112.31,112.31,0,0,1,1692.77,629.25Z"/></svg>