<svg id="Calque_1" data-name="Calque 1" xmlns="http://www.w3.org/2000/svg" viewBox="0 0 1920 1080"><defs><style>.cls-1,.cls-3{fill:#219ebc;}.cls-1,.cls-2{stroke:#fff;stroke-miterlimit:10;stroke-width:5px;}.cls-2{fill:#8ecae6;}</style></defs><path class="cls-1" d="M1920.5,1032.5c-.26,46-.38,57.93-.44,58.33-1-6.06-5.63-10.83-11.78-10.83H11.81A11.81,11.81,0,0,1,0,1068.19V11.81A11.81,11.81,0,0,1,11.81,0H871.13a12,12,0,0,1,3.71.59C893.1,6.6,1148.5,177.9,1148.5,497.5c0,314,244,346,443,346S1921,940.28,1920.5,1032.5Z"/><path class="cls-2" d="M1920.5,1032.5c-.26,46-.38,57.93-.44,58.33-1-6.06-5.63-10.83-11.78-10.83H11.81A11.81,11.81,0,0,1,0,1068.19V11.81A11.81,11.81,0,0,1,11.81,0H871.13a12,12,0,0,1,3.71.59C893.1,6.6,1148.5,177.9,1148.5,497.5c0,314,244,346,443,346S1921,940.28,1920.5,1032.5Z"/><path class="cls-3" d="M1877,1033c-.26,46-.38,57.93-.44,58.33-1-6.06-5.63-10.83-11.78-10.83H-31.69a11.81,11.81,0,0,1-11.81-11.81V12.31A11.81,11.81,0,0,1-31.69.5H827.63a12,12,0,0,1,3.71.59C849.6,7.1,1105,178.4,1105,498c0,314,244,346,443,346S1877.5,940.78,1877,1033Z"/></svg>