<?xml version="1.0" encoding="utf-8"?>
<!-- Generator: Adobe Illustrator 25.2.3, SVG Export Plug-In . SVG Version: 6.00 Build 0)  -->
<svg version="1.1" id="Calque_1" xmlns="http://www.w3.org/2000/svg" xmlns:xlink="http://www.w3.org/1999/xlink" x="0px" y="0px"
	 viewBox="0 0 1920 1080" style="enable-background:new 0 0 1920 1080;" xml:space="preserve">
<style type="text/css">
	.st0{fill:#8ECAE6;}
	.st1{fill:#219EBC;}
</style>
<g>
	<path class="st0" d="M1936.3-649.4L-279.5-626L-411.6,670.4l253.1,19.5c52.6,4,105.5,2.1,157.5-6.4c2.1-0.4,4.3-0.7,6.4-1
		c96.7-15,195.5-6.8,288.8,22.4l259.5,81.3c137.1,42.9,286.4,28.9,411.7-40.8c1.8-1,3.5-2,5.3-3l965.6-548.8V-649.4z"/>
	<path class="st1" d="M1936.3-678.3l-2215.8,23.4L-411.6,641.5l253.1,19.5c52.6,4,105.5,2.1,157.5-6.4c2.1-0.4,4.3-0.7,6.4-1
		c96.7-15,195.5-6.8,288.8,22.4l259.5,81.3c137.1,42.9,286.4,28.9,411.7-40.8c1.8-1,3.5-2,5.3-3l965.6-548.8V-678.3z"/>
</g>
</svg>
