<svg id="Calque_1" data-name="Calque 1" xmlns="http://www.w3.org/2000/svg" viewBox="0 0 1920 1080"><defs><style>.cls-1,.cls-2{fill:none;stroke-miterlimit:10;}.cls-1{stroke:#8ecae6;stroke-width:2.21px;}.cls-2{stroke:#219ebc;stroke-width:5.53px;}</style></defs><path class="cls-1" d="M1013.21,404.41a88.47,88.47,0,0,1-147.49,68,48.54,48.54,0,0,0-32.36-12.55h-3.62a48,48,0,0,0-48,48V775.09a28.3,28.3,0,0,1-28.29,28.3H485.57a48,48,0,0,0-48,48V855a48.79,48.79,0,0,0,12.65,32.46,88.14,88.14,0,0,1,22.48,60.13c-.62,47.31-39.06,86.16-86.37,87.25a88.46,88.46,0,0,1-68-147.48A48.51,48.51,0,0,0,330.94,855v-3.63a48,48,0,0,0-48-48H16.27A28.3,28.3,0,0,1-12,775.09V507.8a48,48,0,0,1,48-48h3.62a48.54,48.54,0,0,1,32.36,12.55,88.47,88.47,0,0,0,147.49-68c-1.1-47.31-40-85.75-87.26-86.37a88.09,88.09,0,0,0-60.12,22.48,48.83,48.83,0,0,1-32.47,12.65H36a48,48,0,0,1-48-48V37.29A28.3,28.3,0,0,1,16.27,9H283a48,48,0,0,1,48,48V60.6A48.49,48.49,0,0,1,318.39,93a88.46,88.46,0,0,0,68,147.48c47.31-1.09,85.75-39.94,86.37-87.25a88.09,88.09,0,0,0-22.48-60.12A48.83,48.83,0,0,1,437.59,60.6V57a48,48,0,0,1,48-48H781.16l.6.61V305.2a48,48,0,0,0,48,48h3.62a48.81,48.81,0,0,0,32.47-12.65A88.09,88.09,0,0,1,926,318C973.26,318.66,1012.12,357.1,1013.21,404.41Z"/><path class="cls-2" d="M975.64,439.56a88.47,88.47,0,0,1-147.49,68A48.49,48.49,0,0,0,795.8,495h-3.63a48,48,0,0,0-48,48v267.3a28.29,28.29,0,0,1-28.29,28.29H448a48,48,0,0,0-48,48v3.62a48.83,48.83,0,0,0,12.65,32.47,88,88,0,0,1,22.48,60.12c-.62,47.31-39.06,86.17-86.37,87.26a88.47,88.47,0,0,1-68-147.49,48.49,48.49,0,0,0,12.55-32.36v-3.62a48,48,0,0,0-48-48H-21.3a28.3,28.3,0,0,1-28.29-28.29V542.94a48,48,0,0,1,48-48H2a48.5,48.5,0,0,1,32.36,12.56,88.47,88.47,0,0,0,147.49-68c-1.09-47.32-40-85.76-87.26-86.37a88,88,0,0,0-60.12,22.48A48.81,48.81,0,0,1,2,388.32H-1.61a48,48,0,0,1-48-48V72.44A28.3,28.3,0,0,1-21.3,44.14H245.4a48,48,0,0,1,48,48v3.63a48.48,48.48,0,0,1-12.55,32.35,88.47,88.47,0,0,0,68,147.49c47.31-1.09,85.75-39.94,86.37-87.26a88.07,88.07,0,0,0-22.48-60.12A48.81,48.81,0,0,1,400,95.75V92.12a48,48,0,0,1,48-48H743.59l.6.61V340.34a48,48,0,0,0,48,48h3.63a48.81,48.81,0,0,0,32.46-12.65,88,88,0,0,1,60.12-22.48C935.69,353.8,974.55,392.24,975.64,439.56Z"/></svg>