<svg id="Calque_1" data-name="Calque 1" xmlns="http://www.w3.org/2000/svg" viewBox="0 0 1920 1080"><defs><style>.cls-1{fill:#8ecae6;}.cls-2{fill:#219ebc;}</style></defs><path class="cls-1" d="M1079.12,464.4a80,80,0,0,1-133.31,61.43,43.83,43.83,0,0,0-29.24-11.35h-3.28a43.36,43.36,0,0,0-43.36,43.37v241.6A25.57,25.57,0,0,1,844.35,825H602.21a43.36,43.36,0,0,0-43.37,43.36v3.28A44.12,44.12,0,0,0,570.28,901a79.68,79.68,0,0,1,20.32,54.35c-.56,42.76-35.31,77.88-78.07,78.86a80,80,0,0,1-61.43-133.3,43.87,43.87,0,0,0,11.35-29.25v-3.28A43.36,43.36,0,0,0,419.08,825H178a25.57,25.57,0,0,1-25.57-25.57V557.85a43.36,43.36,0,0,1,43.36-43.37h3.28a43.83,43.83,0,0,1,29.24,11.35A80,80,0,0,0,361.65,464.4c-1-42.76-36.1-77.51-78.87-78.07a79.65,79.65,0,0,0-54.34,20.32,44.12,44.12,0,0,1-29.34,11.44h-3.28a43.36,43.36,0,0,1-43.36-43.37V132.57A25.57,25.57,0,0,1,178,107H419.08a43.37,43.37,0,0,1,43.37,43.37v3.27a43.85,43.85,0,0,1-11.35,29.25,80,80,0,0,0,61.43,133.3c42.76-1,77.51-36.1,78.07-78.86A79.63,79.63,0,0,0,570.28,183a44.14,44.14,0,0,1-11.44-29.35v-3.27A43.37,43.37,0,0,1,602.21,107H869.38l.55.55V374.72a43.36,43.36,0,0,0,43.36,43.37h3.28a44.12,44.12,0,0,0,29.34-11.44,79.67,79.67,0,0,1,54.34-20.32C1043,386.89,1078.14,421.64,1079.12,464.4Z"/><path class="cls-2" d="M1045.16,496.16a80,80,0,0,1-133.3,61.43,43.84,43.84,0,0,0-29.25-11.34h-3.27A43.36,43.36,0,0,0,836,589.61v241.6a25.57,25.57,0,0,1-25.57,25.57H568.25a43.37,43.37,0,0,0-43.37,43.37v3.27a44.14,44.14,0,0,0,11.44,29.35,79.63,79.63,0,0,1,20.32,54.34c-.56,42.76-35.31,77.88-78.07,78.87a80,80,0,0,1-61.43-133.31,43.83,43.83,0,0,0,11.35-29.25v-3.27a43.36,43.36,0,0,0-43.36-43.37H144.07a25.57,25.57,0,0,1-25.57-25.57V589.61a43.36,43.36,0,0,1,43.37-43.36h3.27a43.84,43.84,0,0,1,29.25,11.34,80,80,0,0,0,133.3-61.43c-1-42.76-36.1-77.5-78.86-78.06a79.59,79.59,0,0,0-54.34,20.32,44.13,44.13,0,0,1-29.35,11.43h-3.27a43.36,43.36,0,0,1-43.37-43.36V164.34a25.57,25.57,0,0,1,25.57-25.57H385.12a43.36,43.36,0,0,1,43.37,43.36v3.28a43.83,43.83,0,0,1-11.35,29.24A80,80,0,0,0,478.57,348c42.76-1,77.51-36.1,78.07-78.87a79.65,79.65,0,0,0-20.32-54.34,44.12,44.12,0,0,1-11.44-29.34v-3.28a43.36,43.36,0,0,1,43.37-43.36H835.42l.55.54V406.49a43.36,43.36,0,0,0,43.37,43.36h3.27A44.13,44.13,0,0,0,912,438.42,79.59,79.59,0,0,1,966.3,418.1C1009.06,418.66,1044.18,453.4,1045.16,496.16Z"/></svg>