<svg id="Calque_1" data-name="Calque 1" xmlns="http://www.w3.org/2000/svg" viewBox="0 0 841.89 182.73"><defs><style>.cls-1,.cls-2{fill:#219ebc;}.cls-2{opacity:0.5;isolation:isolate;}</style></defs><path class="cls-1" d="M896.73,82s-109.52,41.67-181.4,46.28-121.89-20-188.29-23.14S335,100,250.68,131.94c-49.24,18.62-114.94,56-186,45.85s-89.44-45.85-89.44-45.85,49.94,20.55,131.68,22.41S448.1,18.35,577.66,14.79,896.71,82,896.71,82"/><path class="cls-2" d="M896.73,74.93S787.21,116.6,715.33,121.2,593.44,101.2,527,98.06,335,93,250.68,124.9c-49.24,18.62-114.94,56-186,45.85S-24.76,124.9-24.76,124.9s49.94,20.54,131.68,22.4,341.2-136,470.76-139.58S896.73,74.91,896.73,74.91"/></svg>