<svg id="Calque_1" data-name="Calque 1" xmlns="http://www.w3.org/2000/svg" viewBox="0 0 50.79 50.72"><defs><style>.cls-1{fill:none;stroke:#219ebc;stroke-miterlimit:10;}</style></defs><path class="cls-1" d="M37,30.66a1.79,1.79,0,0,1,.79.15l11.45,5s1,.34.44,2.75S47.3,48.64,47.3,48.64s-.1,1.17-3.69,1.06C12.12,48.74,0,17.81,1,8.31c.59-5.54.21-4.65,2.33-5S13.23.83,13.23.83a2,2,0,0,1,2.06,1.39c.57,1.54,1.9,6,3.81,8.81,2,2.94.4,4.25.4,4.25l-6.27,5.26a64.46,64.46,0,0,0,5.36,7.68c1.95,2,6.88,7.67,10.51,8.09,3.15.35,5.18-2.47,5.81-4.28a2,2,0,0,1,1.81-1.35Z"/></svg>