<svg id="Calque_1" data-name="Calque 1" xmlns="http://www.w3.org/2000/svg" viewBox="0 0 50.97 49.15"><defs><style>.cls-1,.cls-2{fill:#023047;}.cls-2{opacity:0.4;}</style></defs><path class="cls-1" d="M18.75,22.39S34.65,5.92,36.25,4.07C43.62-4.47,55.46,7.39,47.31,14.6,43.1,18.32,28.19,31.35,28.19,31.35Z"/><path class="cls-2" d="M16.78,24.38s-5.83,2.24-8,3.15-1.89,1.66-1.89,1.66L1.17,45.61l.17.15,9.22-8.9a2.32,2.32,0,0,1,0-.46,3.18,3.18,0,1,1,3.17,3.07,3.71,3.71,0,0,1-.47,0L4.09,48.27l.26.24s15-4.89,16.72-5.47A3.14,3.14,0,0,0,23.13,41l3.08-7.46Z"/></svg>