<svg id="Calque_1" data-name="Calque 1" xmlns="http://www.w3.org/2000/svg" viewBox="0 0 50.11 65.36"><defs><style>.cls-1{fill:#023047;}.cls-2,.cls-3{fill:none;stroke:#023047;stroke-miterlimit:10;}.cls-2{stroke-width:0.41px;}.cls-3{stroke-width:3.26px;}</style></defs><path class="cls-1" d="M5.12,3v9.43a1.6,1.6,0,0,0,1.6,1.6H43.45a1.6,1.6,0,0,0,1.6-1.6V3a1.6,1.6,0,0,0-1.6-1.6H6.72A1.6,1.6,0,0,0,5.12,3Zm27.1,8.13a3.67,3.67,0,1,1,3-3A3.67,3.67,0,0,1,32.22,11.16Zm8.56,0a3.67,3.67,0,1,1,3-3A3.68,3.68,0,0,1,40.78,11.16Z"/><rect class="cls-2" x="5.12" y="16.5" width="39.92" height="12.63" rx="1.6"/><path class="cls-2" d="M35.22,23.23A3.67,3.67,0,1,1,31,19,3.68,3.68,0,0,1,35.22,23.23Z"/><path class="cls-2" d="M43.77,23.23A3.67,3.67,0,1,1,39.54,19,3.67,3.67,0,0,1,43.77,23.23Z"/><path class="cls-1" d="M43.77,23.23A3.67,3.67,0,1,1,39.54,19,3.67,3.67,0,0,1,43.77,23.23Z"/><path class="cls-1" d="M35.22,23.23A3.67,3.67,0,1,1,31,19,3.68,3.68,0,0,1,35.22,23.23Z"/><path class="cls-1" d="M5.12,33.18v9.43a1.6,1.6,0,0,0,1.6,1.59H43.45a1.6,1.6,0,0,0,1.6-1.59V33.18a1.6,1.6,0,0,0-1.6-1.6H6.72A1.6,1.6,0,0,0,5.12,33.18Zm27.1,8.12a3.67,3.67,0,1,1,3-3A3.67,3.67,0,0,1,32.22,41.3Zm8.56,0a3.67,3.67,0,1,1,3-3A3.67,3.67,0,0,1,40.78,41.3Z"/><line class="cls-3" x1="25.09" y1="41.35" x2="25.09" y2="54.8"/><circle class="cls-3" cx="25.09" cy="57.69" r="4.48"/><line class="cls-3" x1="20.2" y1="57.76" x2="0.64" y2="57.63"/><circle class="cls-3" cx="25.09" cy="57.69" r="4.48"/><line class="cls-3" x1="29.97" y1="57.63" x2="49.53" y2="57.76"/></svg>