<svg id="Calque_1" data-name="Calque 1" xmlns="http://www.w3.org/2000/svg" viewBox="0 0 35.23 30.04"><defs><style>.cls-1{fill:#fff;}</style></defs><path class="cls-1" d="M31.18,6.58H24.23V9.05h7a.58.58,0,0,1,.58.57V26.5a.58.58,0,0,1-.58.58H3.68a.58.58,0,0,1-.58-.58V9.62a.58.58,0,0,1,.58-.57h7V6.58h-7a3,3,0,0,0-3.05,3V26.5a3.06,3.06,0,0,0,3.05,3.05h27.5a3,3,0,0,0,3-3.05V9.62A3,3,0,0,0,31.18,6.58Z"/><path class="cls-1" d="M23.87,13.66,21,18.72,18,23.79a.69.69,0,0,1-1.19,0l-2.93-5.07L11,13.66a.68.68,0,0,1,.6-1h2.26V1.26a.71.71,0,0,1,.71-.71h5.75a.7.7,0,0,1,.7.71V12.63h2.27A.68.68,0,0,1,23.87,13.66Z"/></svg>